<svg id="Iconly_Light-outline_Shield_Done" data-name="Iconly/Light-outline/Shield Done" xmlns="http://www.w3.org/2000/svg" width="24" height="24" viewBox="0 0 24 24">
  <g id="Shield_Done" data-name="Shield Done" transform="translate(3.5 2)">
    <path id="Shield_Done-2" data-name="Shield Done" d="M8.147,19.912l-3.6-1.885A8.471,8.471,0,0,1,2.109,16.2,8.232,8.232,0,0,1,0,10.71V4.072a1.81,1.81,0,0,1,1.242-1.7L7.885.1a1.911,1.911,0,0,1,1.23,0L15.757,2.37A1.81,1.81,0,0,1,17,4.072v6.642A8.224,8.224,0,0,1,14.894,16.2a8.467,8.467,0,0,1-2.437,1.831L8.866,19.912a.777.777,0,0,1-.719,0ZM8.386,1.49,1.742,3.758a.334.334,0,0,0-.229.313V10.71a6.781,6.781,0,0,0,1.739,4.522,7.018,7.018,0,0,0,2.016,1.5l3.236,1.7,3.232-1.7a7.328,7.328,0,0,0,1.815-1.29l.2-.211a6.782,6.782,0,0,0,1.735-4.519V4.072a.336.336,0,0,0-.23-.314L8.613,1.49A.345.345,0,0,0,8.5,1.471.349.349,0,0,0,8.386,1.49ZM7.336,12.173,7.25,12.1l-1.91-1.857a.72.72,0,0,1,0-1.04.773.773,0,0,1,.985-.071l.085.071,1.373,1.337,3.4-3.3a.772.772,0,0,1,1.07,0,.719.719,0,0,1,.073.958l-.073.083L8.321,12.1a.773.773,0,0,1-.986.071Z" fill="#200e32"/>
  </g>
</svg>
