<svg xmlns="http://www.w3.org/2000/svg" width="43" height="39" viewBox="0 0 43 39">
  <g id="Group_61" data-name="Group 61" transform="translate(-95.081 -4148.979)">
    <g id="Message" transform="translate(95 4148.832)">
      <path id="Message-2" data-name="Message" d="M11.73,39a11.245,11.245,0,0,1-8.419-3.668A13.3,13.3,0,0,1,0,26.306V12.694A13.3,13.3,0,0,1,3.311,3.668,11.245,11.245,0,0,1,11.73,0h19.5A11.886,11.886,0,0,1,39.8,3.842a12.112,12.112,0,0,1,3.177,8.853l0,13.514A12.241,12.241,0,0,1,39.8,35.159,11.908,11.908,0,0,1,31.211,39ZM3.262,12.694V26.306c0,5.437,3.56,9.383,8.467,9.383H31.192A8.619,8.619,0,0,0,37.415,32.9a8.9,8.9,0,0,0,2.3-6.595l0-13.709a8.883,8.883,0,0,0-2.3-6.5,8.619,8.619,0,0,0-6.223-2.788H11.73C6.823,3.311,3.262,7.258,3.262,12.694Zm14.76,9.27-.346-.255-8.889-7.16a1.675,1.675,0,0,1-.263-2.326,1.615,1.615,0,0,1,2.092-.406l.2.137,8.878,7.153a2.942,2.942,0,0,0,3.4.191l.253-.177,8.814-7.16a1.613,1.613,0,0,1,2.291.257,1.676,1.676,0,0,1-.075,2.161l-.178.166-8.829,7.174a6.176,6.176,0,0,1-7.345.248Z" transform="translate(0.081 0.147)" fill="#fff"/>
    </g>
  </g>
</svg>
