<svg id="Iconly_Light-outline_Location" data-name="Iconly/Light-outline/Location" xmlns="http://www.w3.org/2000/svg" width="34.921" height="41.085" viewBox="0 0 34.921 41.085">
  <g id="Location">
    <path id="Location-2" data-name="Location" d="M15.435,40.432l-.124-.1-.849-.571A42.641,42.641,0,0,1,5.149,31.02L4.5,30.171A21.98,21.98,0,0,1,0,17.515l.009-.586A17.485,17.485,0,0,1,17.459,0h.059l.525.009A17.493,17.493,0,0,1,34.921,17.569v.211c-.1,5.422-2.745,11.03-7.641,16.212a43.488,43.488,0,0,1-7.693,6.356l-.1.085a3.469,3.469,0,0,1-4.051,0ZM17.016,3.124A14.376,14.376,0,0,0,3.108,17.459l.039.734a18.871,18.871,0,0,0,3.831,10.1,39.379,39.379,0,0,0,10.07,9.458l.168.128a.371.371,0,0,0,.49,0l.174-.131a40.3,40.3,0,0,0,7.155-5.907c4.346-4.6,6.691-9.473,6.779-14.087l-.007-.682a14.375,14.375,0,0,0-14.3-13.951ZM10.808,17.766a6.652,6.652,0,1,1,6.652,6.672A6.669,6.669,0,0,1,10.808,17.766Zm3.108,0a3.544,3.544,0,1,0,3.544-3.555A3.553,3.553,0,0,0,13.915,17.766Z" transform="translate(0 0)" fill="#fff"/>
  </g>
</svg>
