<svg xmlns="http://www.w3.org/2000/svg" width="43.081" height="43.072" viewBox="0 0 43.081 43.072">
  <g id="Group_59" data-name="Group 59" transform="translate(621.9 25.345)">
    <path id="Path_30" data-name="Path 30" d="M-621.9-2.71V-5.064c.028-.12.065-.238.082-.36.123-.914.18-1.843.373-2.742a21.084,21.084,0,0,1,7.9-12.659,20.809,20.809,0,0,1,17.135-4.12,20.755,20.755,0,0,1,12.358,7.173A20.8,20.8,0,0,1-579.3.61a20.868,20.868,0,0,1-7.876,12.533,21.1,21.1,0,0,1-10.145,4.339c-.619.09-1.241.164-1.861.245h-2.355c-.6-.066-1.195-.115-1.788-.2a22.025,22.025,0,0,1-7.843-2.675.94.94,0,0,0-.655-.071c-2.254.645-4.5,1.31-6.751,1.978-1.053.313-2.1.645-3.151.969l-.168-.168a2.308,2.308,0,0,0,.113-.261c.936-3.158,1.865-6.318,2.812-9.472a1.135,1.135,0,0,0-.111-.981,20.223,20.223,0,0,1-2.483-7.028C-621.7-1.023-621.791-1.867-621.9-2.71Zm3.749,16.673c.157-.038.235-.053.311-.075,2.091-.617,4.183-1.229,6.271-1.856a.931.931,0,0,1,.854.113,18.729,18.729,0,0,0,13.294,2.791A18.163,18.163,0,0,0-587.1,9.726a18.423,18.423,0,0,0,5.336-17.3,18.132,18.132,0,0,0-7.026-11.252,18.6,18.6,0,0,0-14.257-3.8,17.887,17.887,0,0,0-9.9,4.591,18.691,18.691,0,0,0-6.227,16.78,16.964,16.964,0,0,0,2.557,7.259,2.13,2.13,0,0,1,.236,2.009C-617.01,9.963-617.551,11.93-618.151,13.964Z" fill="#fff"/>
    <path id="Path_31" data-name="Path 31" d="M-483.05,92.42c-6.087-.551-10.9-2.958-14.464-7.681a18.867,18.867,0,0,1-3.678-9.156,9.847,9.847,0,0,1,.5-5.207,5.553,5.553,0,0,1,3.143-3.2,2.365,2.365,0,0,1,2.3.421,4.093,4.093,0,0,1,.442.387q1.861,1.854,3.717,3.714a2.691,2.691,0,0,1,0,4.085c-.275.279-.564.547-.829.835a1.545,1.545,0,0,0,.006,2.257q1.937,2.044,3.9,4.063a1.732,1.732,0,0,0,2.517.022c.3-.291.589-.6.895-.889a2.669,2.669,0,0,1,3.9.02q1.949,1.914,3.865,3.863a2.648,2.648,0,0,1,.128,3.808,6.067,6.067,0,0,1-3.582,2.332C-481.284,92.256-482.288,92.333-483.05,92.42Zm4.525-4.488c-.008-.026-.009-.059-.026-.077-1.3-1.313-2.6-2.628-3.922-3.926a.421.421,0,0,0-.406.021c-.359.312-.674.674-1.028.991a4.288,4.288,0,0,1-5.808-.113c-1.429-1.425-2.821-2.888-4.191-4.37a3.925,3.925,0,0,1-.534-4.6,12.949,12.949,0,0,1,1.523-1.827c.153-.175.274-.292.05-.514-1.266-1.251-2.518-2.517-3.784-3.768-.071-.07-.291-.11-.341-.061a4.5,4.5,0,0,0-1.5,1.977,10.216,10.216,0,0,0-.005,4.743,16.225,16.225,0,0,0,6.657,10.374A15.634,15.634,0,0,0-481.823,89.8,4.089,4.089,0,0,0-478.525,87.931Z" transform="translate(-110.418 -84.599)" fill="#fff"/>
  </g>
</svg>
