<svg id="Iconly_Light-outline_Work" data-name="Iconly/Light-outline/Work" xmlns="http://www.w3.org/2000/svg" width="24" height="24" viewBox="0 0 24 24">
  <g id="Work" transform="translate(2 2)">
    <path id="Work-2" data-name="Work" d="M4.289,19.734A3.732,3.732,0,0,1,1.2,18.368,4.563,4.563,0,0,1,.23,15.808C.2,15.264.057,13.5.057,13.475a.743.743,0,0,1,1.484-.058s.154,1.749.187,2.3a3.1,3.1,0,0,0,.631,1.692,2.218,2.218,0,0,0,1.932.824c1.237,0,10.229,0,11.466,0a2.218,2.218,0,0,0,1.933-.824,3.1,3.1,0,0,0,.632-1.693c.032-.552.186-2.3.186-2.3a.743.743,0,0,1,1.484.058c0,.023-.141,1.789-.173,2.333a4.576,4.576,0,0,1-.974,2.561,3.733,3.733,0,0,1-3.085,1.365l-5.737,0Zm4.955-5.056V13.384a.75.75,0,0,1,1.5,0v1.294a.75.75,0,0,1-1.5,0Zm2.5-2.126A1.8,1.8,0,0,0,9.99,11.2a1.827,1.827,0,0,0-1.779,1.356.741.741,0,0,1-.72.553.722.722,0,0,1-.107-.007A17.174,17.174,0,0,1,.337,10.482.75.75,0,0,1,0,9.856V6.389A3.817,3.817,0,0,1,3.817,2.581H5.784A2.959,2.959,0,0,1,8.7,0h2.582a2.957,2.957,0,0,1,2.92,2.581h1.977A3.812,3.812,0,0,1,19.99,6.389V9.856a.752.752,0,0,1-.336.626,17.169,17.169,0,0,1-7.078,2.629.82.82,0,0,1-.1.007A.752.752,0,0,1,11.746,12.552Zm1.213-1.02A15.737,15.737,0,0,0,18.49,9.446V6.389a2.311,2.311,0,0,0-2.307-2.308H3.817A2.316,2.316,0,0,0,1.5,6.389V9.446a15.713,15.713,0,0,0,5.511,2.077A3.337,3.337,0,0,1,9.99,9.7,3.288,3.288,0,0,1,12.959,11.533ZM7.3,2.581h5.387a1.458,1.458,0,0,0-1.4-1.081H8.7A1.461,1.461,0,0,0,7.3,2.581Z" transform="translate(0 0)" fill="#200e32"/>
  </g>
</svg>
