<svg id="Iconly_Broken_Wallet" data-name="Iconly/Broken/Wallet" xmlns="http://www.w3.org/2000/svg" width="24" height="24" viewBox="0 0 24 24">
  <g id="Wallet" transform="translate(2 2.5)">
    <path id="Wallet-2" data-name="Wallet" d="M13.548,18.318a.675.675,0,0,1,.667-.682,4.509,4.509,0,0,0,4.452-4.554V7.365H15.383a2,2,0,0,0,0,4.008h1.364a.682.682,0,0,1,0,1.364H15.383a3.369,3.369,0,0,1,0-6.736h3.284V5.919a4.509,4.509,0,0,0-4.452-4.555H5.785A4.455,4.455,0,0,0,1.567,4.528h8.788a.682.682,0,0,1,0,1.364H1.336c0,.009,0,.017,0,.027v7.162a4.508,4.508,0,0,0,4.452,4.554h4.241a.682.682,0,0,1,0,1.364H5.785A5.859,5.859,0,0,1,0,13.082V5.919A5.859,5.859,0,0,1,5.785,0h8.429A5.86,5.86,0,0,1,20,5.919v7.162A5.86,5.86,0,0,1,14.215,19,.675.675,0,0,1,13.548,18.318Zm1.98-8.329a.682.682,0,0,1,0-1.364h.3a.682.682,0,0,1,0,1.364Z" fill="#200e32"/>
  </g>
</svg>
