<svg id="Iconly_Light-outline_Send" data-name="Iconly/Light-outline/Send" xmlns="http://www.w3.org/2000/svg" width="24" height="24" viewBox="0 0 24 24">
  <g id="Send" transform="translate(2 2)">
    <path id="Send-2" data-name="Send" d="M12.925,19.5a1.88,1.88,0,0,1-1.548-.8l-.088-.133-3.9-6.455L.918,8.132a1.933,1.933,0,0,1,.319-3.448l.151-.049L17.044.078A1.95,1.95,0,0,1,17.586,0a1.93,1.93,0,0,1,1.868,2.342l-.036.14-4.645,15.64A1.916,1.916,0,0,1,12.925,19.5Zm.681-14.379a.743.743,0,0,1,.444.145l.085.072a.755.755,0,0,1,.076.976l-.072.085L8.885,11.687,12.573,17.8a.41.41,0,0,0,.358.205.417.417,0,0,0,.374-.228l.031-.076L17.98,2.056a.429.429,0,0,0-.066-.382.422.422,0,0,0-.336-.172l-.043,0-.073.014L1.806,6.074a.419.419,0,0,0-.294.312.432.432,0,0,0,.126.418l.066.049,6.124,3.769,5.245-5.279A.747.747,0,0,1,13.606,5.122Z" transform="translate(0.25 0.249)" fill="#200e32"/>
  </g>
</svg>
