<svg id="Iconly_Light-outline_Calling" data-name="Iconly/Light-outline/Calling" xmlns="http://www.w3.org/2000/svg" width="38.757" height="38.75" viewBox="0 0 38.757 38.75">
  <g id="Calling">
    <path id="Calling-2" data-name="Calling" d="M25.331,37.646C21.45,36.022,16.241,32.155,11.4,27.3,6.469,22.358,2.725,17.268,1.128,13.338l-.2-.462c-1.3-3.137-1.233-5.728.213-7.7C2.4,3.064,5.89,0,8.478,0c.049,0,.1,0,.145,0l.056,0a4.346,4.346,0,0,1,2.684,1.374l.246.251c1.613,1.693,4.3,5.341,4.74,6.616l.049.171c.281,1.351-.047,2.235-.888,3.705L15.3,12.5c-.389.715-.464,1.024-.338,1.383A17.272,17.272,0,0,0,24.7,23.7a1.019,1.019,0,0,0,.364.07,2.875,2.875,0,0,0,1.318-.532l.481-.274a4.829,4.829,0,0,1,2.431-.785,4.258,4.258,0,0,1,.889.1c1,.209,4.25,2.567,6.278,4.38l.53.492.19.188a4.372,4.372,0,0,1,1.372,2.769c.089,2.551-3,6.276-5.046,7.446a6.334,6.334,0,0,1-3.779,1.2A10.5,10.5,0,0,1,25.331,37.646ZM8.464,2.837,8.3,2.846C7,3.018,4.368,5.28,3.486,6.741l-.152.225c-.767,1.261-.642,2.978.384,5.249l.2.473c1.611,3.637,5.165,8.33,9.749,12.874,4.515,4.478,9.3,8.025,12.8,9.489l.41.183a7.194,7.194,0,0,0,2.8.666,3.844,3.844,0,0,0,2.31-.731l.1-.063a14.673,14.673,0,0,0,2.079-1.988,5.542,5.542,0,0,0,1.578-2.844,1.743,1.743,0,0,0-.556-.936l-.157-.155a38.5,38.5,0,0,0-5.418-4.129,1.193,1.193,0,0,0-.241-.026,3.17,3.17,0,0,0-1.463.6l-.474.269a4.805,4.805,0,0,1-2.326.725,4.127,4.127,0,0,1-1.419-.277A20.113,20.113,0,0,1,12.33,14.9c-.542-1.5-.2-2.553.668-4.073l.216-.382c.406-.738.5-1.064.422-1.449A39.081,39.081,0,0,0,9.728,3.761l-.337-.352-.178-.164a1.826,1.826,0,0,0-.645-.389ZM29.3,15.469A6.9,6.9,0,0,0,23.84,9.978,1.419,1.419,0,0,1,24,7.172l.187,0,.19.024a9.717,9.717,0,0,1,7.692,7.732,1.421,1.421,0,0,1-1.114,1.664A1.409,1.409,0,0,1,29.3,15.469Zm6.644-.129a13.735,13.735,0,0,0-3.9-8.135A13.589,13.589,0,0,0,23.956,3.3,1.419,1.419,0,0,1,23.888.49l.187-.017.192.009A16.412,16.412,0,0,1,34.041,5.2a16.582,16.582,0,0,1,4.706,9.823A1.417,1.417,0,0,1,37.5,16.59c-.052.005-.106.009-.159.009A1.41,1.41,0,0,1,35.946,15.34Z" fill="#fff"/>
  </g>
</svg>
