<?xml version="1.0" encoding="utf-8"?>
<svg version="1.1" id="Layer_1" xmlns="http://www.w3.org/2000/svg" xmlns:xlink="http://www.w3.org/1999/xlink" x="0px" y="0px"
	 viewBox="0 0 154.65 70.41" style="enable-background:new 0 0 154.65 70.41;" xml:space="preserve">
<style type="text/css">
	.st0{fill:#333;}
	.st1{fill:url(#Path_7_00000152243589367120229520000009749077052505959592_);}
	.st2{fill:url(#SVGID_1_);}
	.st3{fill:url(#SVGID_00000160900859835095465630000006782741770314593691_);}
  path,polygon {
  stroke-width: 0;
  animation: logo 10s linear infinite;
  stroke: #333;
}
@keyframes logo {
  0% {
    stroke-width: 0.1;
    stroke-dashoffset: 1200;
    fill-opacity: 0;
  }
  10% {
    fill-opacity: 0;
  }
  100% {
    stroke-dashoffset: 0;
    fill-opacity: 1;
    stroke-width: 0pt;
  }
}
</style>
<g>
	<path id="Path_1_00000120530793773627166590000006245443601925573024_" stroke-dasharray="1200 1000" class="st0" d="M6.34,69.74C4.15,69.25,2.02,68.51,0,67.53
		v-7.36c2.02,1.16,4.18,2.03,6.43,2.6c2.24,0.55,4.54,0.82,6.85,0.81c3.39,0,5.09-1.22,5.09-3.65c0.07-0.86-0.25-1.7-0.87-2.3
		c-0.81-0.6-1.74-1.02-2.72-1.23l-4.91-1.08c-2.59-0.44-5-1.59-6.98-3.32c-1.67-1.78-2.52-4.18-2.36-6.61
		c0-6.94,4.33-10.42,12.99-10.42c3.91,0.02,7.78,0.75,11.43,2.15v7.06c-1.62-0.77-3.33-1.35-5.09-1.74
		c-1.96-0.44-3.97-0.66-5.99-0.66c-3.47,0-5.21,1.04-5.21,3.11c-0.07,0.8,0.25,1.58,0.87,2.1c0.79,0.53,1.67,0.9,2.6,1.08L17,49.15
		c2.66,0.48,5.14,1.65,7.18,3.41c1.56,1.52,2.33,3.85,2.33,7c0,3.55-1.2,6.25-3.59,8.08c-2.39,1.83-5.61,2.76-9.64,2.76
		C10.96,70.43,8.63,70.21,6.34,69.74z"/>
	<path id="Path_2_00000009548467526291555100000009273198126173598849_" stroke-dasharray="1200 1000" class="st0" d="M41.46,43.94v15.14
		c-0.1,1.05,0.15,2.1,0.72,2.99c0.72,0.65,1.68,0.95,2.63,0.84c1.23,0.01,2.46-0.16,3.65-0.48v7c-1.85,0.43-3.73,0.67-5.63,0.72
		c-3.31,0-5.71-0.7-7.18-2.1s-2.21-3.56-2.21-6.46V43.94h-4.43V36.7h4.43V25.33h8.02V36.7h7.66v7.24L41.46,43.94z"/>
	<path id="Path_3_00000071522269670189168470000012345829155630920114_" stroke-dasharray="1200 1000"  class="st0" d="M75.16,38.46c1.91,1.01,3.37,2.7,4.1,4.73
		c0.7,2.15,1.01,4.41,0.9,6.68v20.16h-8.02v-3.7c-1.27,1.22-2.74,2.21-4.34,2.93c-4.43,1.74-9.45,0.92-13.11-2.12
		c-2.2-2.18-3.37-5.2-3.2-8.29c0-3.59,1.11-6.37,3.32-8.35c2.21-1.98,5.26-2.96,9.13-2.96c2.84-0.07,5.66,0.57,8.2,1.86
		c0.05-0.94-0.11-1.89-0.46-2.76c-0.35-0.97-1.07-1.77-1.99-2.23c-1-0.5-2.43-0.45-4.39-0.45h-5.67V36.7h6.53
		C70.1,36.7,73.1,37.29,75.16,38.46z M72.13,60.4v-5.27c-2.01-1.05-4.25-1.61-6.52-1.62c-1.53-0.07-3.04,0.36-4.31,1.23
		c-1.19,0.97-1.81,2.46-1.68,3.98c-0.14,1.43,0.38,2.85,1.41,3.86c1.01,0.8,2.27,1.22,3.56,1.17C67.02,63.76,69.54,62.64,72.13,60.4
		L72.13,60.4z"/>
	<path id="Path_4_00000041269998218626217050000014799446777028512945_" stroke-dasharray="1200 1000"  class="st0" d="M103.02,36.7v7.18h-1.38
		c-3.54,0.1-6.94,1.41-9.64,3.71v22.57h-8.02V36.7H92v4.07c3.07-2.71,6.29-4.07,9.64-4.07H103.02z"/>
	<path id="Path_5_00000119087167345902597470000005819227184384855190_" stroke-dasharray="1200 1000" class="st0" d="M119.3,43.94v15.14
		c-0.1,1.05,0.15,2.1,0.72,2.99c0.72,0.65,1.68,0.95,2.63,0.84c1.23,0.01,2.46-0.16,3.65-0.48v7c-1.85,0.43-3.73,0.67-5.63,0.72
		c-3.31,0-5.71-0.7-7.18-2.1c-1.48-1.4-2.21-3.55-2.21-6.46V43.94h-4.43V36.7h4.43V25.33h8.02V36.7h7.66v7.24L119.3,43.94z"/>

		<linearGradient id="Path_7_00000025445111197484625590000004855578219755301566_" gradientUnits="userSpaceOnUse" x1="-211.8008" y1="443.882" x2="-210.9986" y2="444.6821" gradientTransform="matrix(29.323 0 0 -29.413 6338.8584 13082.376)">
		<stop  offset="0" style="stop-color:#329DD8"/>
		<stop  offset="0.999" style="stop-color:#89BC40"/>
	</linearGradient>

		<path id="Path_7_00000045614657068247162640000008497050205004798358_"  stroke-dasharray="1200 1000"style="fill:url(#Path_7_00000025445111197484625590000004855578219755301566_);" d="
		M125.32,23.5L148.82,0l5.82,5.92l-23.5,23.5L125.32,23.5z"/>
	<linearGradient id="SVGID_1_" gradientUnits="userSpaceOnUse" x1="128.2108" y1="2.9436" x2="136.3625" y2="11.075">
		<stop  offset="0" style="stop-color:#EA4324"/>
		<stop  offset="0.4928" style="stop-color:#ED5527"/>
		<stop  offset="1" style="stop-color:#F26A2D"/>
	</linearGradient>
	<polygon class="st2" stroke-dasharray="1200 1000" points="133.42,14.01 139.29,8.14 131.15,0 125.32,5.92 133.42,14.01 	"/>

		<linearGradient id="SVGID_00000013903850551104789050000004165067841072055716_" gradientUnits="userSpaceOnUse" x1="143.61" y1="18.3411" x2="151.7594" y2="26.4702">
		<stop  offset="0" style="stop-color:#EE6F23"/>
		<stop  offset="1" style="stop-color:#F99C2E"/>
	</linearGradient>
	<polygon stroke-dasharray="1200 1000" style="fill:url(#SVGID_00000013903850551104789050000004165067841072055716_);" points="146.55,15.41 140.68,21.27
		140.68,21.27 148.82,29.41 154.65,23.5 	"/>
</g>
</svg>
