<svg id="Component_1_2" data-name="Component 1 – 2" xmlns="http://www.w3.org/2000/svg" width="358.229" height="162.251" viewBox="0 0 358.229 162.251">
  <path id="Path_11" data-name="Path 11" d="M14.753,160.72A68.3,68.3,0,0,1,0,155.57V138.451a59.228,59.228,0,0,0,14.962,6.055A66.088,66.088,0,0,0,30.9,146.385q11.829,0,11.832-8.491,0-3.616-2.019-5.358a15.9,15.9,0,0,0-6.333-2.853l-11.412-2.5q-10.719-2.366-16.214-7.726t-5.5-15.378q0-24.217,30.2-24.217a75.3,75.3,0,0,1,26.583,5.01V101.29a55.332,55.332,0,0,0-11.83-4.036A62.176,62.176,0,0,0,32.29,95.723q-12.108,0-12.108,7.237a5.719,5.719,0,0,0,2.017,4.871,16.493,16.493,0,0,0,6.055,2.5l11.273,2.506q11.274,2.646,16.7,7.933t5.427,16.284q0,12.39-8.35,18.789t-22.409,6.4A76.994,76.994,0,0,1,14.753,160.72Z" fill="#fff"/>
  <path id="Path_12" data-name="Path 12" d="M96.4,100.734v35.212q0,5.01,1.671,6.959t6.123,1.948a31.766,31.766,0,0,0,8.49-1.113v16.284a66.052,66.052,0,0,1-13.083,1.67q-11.553,0-16.7-4.871t-5.15-15.031V100.734h-10.3V83.893h10.3V57.449H96.4V83.893h17.815v16.841Z" fill="#fff"/>
  <path id="Path_13" data-name="Path 13" d="M174.74,88a20.1,20.1,0,0,1,9.533,10.994c1.577,4.594,2.088,8.56,2.088,15.519v46.876H167.71v-8.6a35.852,35.852,0,0,1-10.09,6.819,27.429,27.429,0,0,1-10.786,2.088q-12.249,0-19.694-7.028t-7.445-19.277q0-12.525,7.723-19.416t21.225-6.889A39.909,39.909,0,0,1,167.71,113.4c-.093-3.526-.288-4.294-1.075-6.429A9.35,9.35,0,0,0,162,101.778c-2.32-1.16-5.662-1.044-10.207-1.044H138.622V83.893h15.171Q167.572,83.893,174.74,88Zm-7.03,51.009V126.761A33.039,33.039,0,0,0,152.54,123a16.542,16.542,0,0,0-10.02,2.852q-3.9,2.856-3.9,9.256,0,6.263,3.271,8.977a12.534,12.534,0,0,0,8.281,2.714Q158.661,146.8,167.71,139.008Z" fill="#fff"/>
  <path id="Path_14" data-name="Path 14" d="M239.526,83.893v16.7h-3.2q-11.412,0-22.407,8.629v52.471h-18.65v-77.8h18.65v9.464q10.716-9.464,22.407-9.464Z" fill="#fff"/>
  <path id="Path_15" data-name="Path 15" d="M277.38,100.734v35.212q0,5.01,1.671,6.959t6.123,1.948a31.766,31.766,0,0,0,8.49-1.113v16.284a66.052,66.052,0,0,1-13.083,1.67q-11.553,0-16.7-4.871t-5.149-15.031V100.734h-10.3V83.893h10.3V57.449H277.38V83.893H295.2v16.841Z" fill="#fff"/>
  <g id="Group_6" data-name="Group 6">
    <rect id="Rectangle_12" data-name="Rectangle 12" width="17.299" height="17.299" transform="translate(313.23 32.769) rotate(-44.999)" fill="#fff"/>
    <path id="Path_16" data-name="Path 16" d="M326.876,46.415,345.9,65.444l12.325-12.138L339.108,34.183Z" fill="#fff"/>
    <path id="Path_17" data-name="Path 17" d="M324.048,19.123,305.017.092,292.694,12.233l19.122,19.122Z" fill="#fff"/>
  </g>
  <path id="Path_18" data-name="Path 18" d="M292.786,53.212l12.141,12.323,53.211-53.211L346,0Z" fill="#fff"/>
</svg>
